<?xml version="1.0" standalone="no"?>
<!DOCTYPE svg PUBLIC "-//W3C//DTD SVG 20010904//EN"
 "http://www.w3.org/TR/2001/REC-SVG-20010904/DTD/svg10.dtd">
<svg version="1.0" xmlns="http://www.w3.org/2000/svg"
 width="512.000000pt" height="512.000000pt" viewBox="0 0 512.000000 512.000000"
 preserveAspectRatio="xMidYMid meet">
<metadata>
Created by potrace 1.14, written by Peter Selinger 2001-2017
</metadata>
<g transform="translate(0.000000,512.000000) scale(0.100000,-0.100000)"
fill="#000000" stroke="none">
<path d="M2340 5109 c-477 -41 -934 -217 -1327 -510 -126 -94 -398 -366 -492
-492 -426 -570 -599 -1274 -485 -1967 22 -131 76 -339 119 -456 55 -150 184
-406 268 -532 191 -285 444 -538 728 -728 569 -380 1304 -513 1989 -359 882
198 1620 893 1875 1765 69 238 95 402 102 665 20 711 -244 1372 -747 1875
-539 540 -1268 805 -2030 739z m-228 -1159 c254 -78 442 -393 399 -668 -46
-295 -271 -473 -533 -423 -181 36 -324 169 -401 375 -25 68 -31 100 -35 196
-5 133 6 199 48 288 93 197 316 296 522 232z m1129 10 c168 -31 306 -169 350
-350 18 -75 15 -230 -5 -310 -24 -90 -87 -215 -141 -276 -54 -62 -135 -118
-213 -146 -83 -30 -226 -30 -305 1 -268 104 -375 463 -228 766 111 230 326
355 542 315z m-1841 -921 c147 -34 303 -166 378 -319 54 -109 72 -183 72 -290
0 -143 -43 -257 -132 -355 -162 -177 -446 -179 -642 -3 -245 219 -290 640 -89
841 112 113 266 160 413 126z m2505 -43 c155 -41 275 -167 320 -337 19 -70 19
-197 -1 -279 -56 -239 -253 -437 -466 -470 -191 -29 -369 64 -449 234 -73 156
-76 321 -9 495 67 172 232 321 399 360 55 14 151 12 206 -3z m-1225 -172 c143
-41 276 -151 342 -284 21 -41 52 -127 68 -190 17 -63 43 -135 57 -160 15 -25
86 -106 158 -181 100 -103 140 -151 163 -200 72 -146 82 -303 27 -415 -91
-187 -336 -285 -572 -229 -180 42 -579 45 -762 5 -215 -46 -388 -7 -516 118
-130 127 -148 323 -48 524 29 58 61 96 162 197 145 145 178 198 216 347 34
131 83 230 153 306 149 162 347 219 552 162z"/>
</g>
</svg>
